<svg width="48" height="43" viewBox="0 0 48 43" fill="none" xmlns="http://www.w3.org/2000/svg">
<path d="M24 16.4794C28.4974 16.4794 32.1562 12.8041 32.1562 8.28658C32.1562 3.76903 28.4974 0.09375 24 0.09375C19.5026 0.09375 15.8438 3.76903 15.8438 8.28658C15.8438 12.8041 19.5026 16.4794 24 16.4794ZM24 2.91886C26.9465 2.91886 29.3437 5.3268 29.3437 8.28658C29.3437 11.2464 26.9465 13.6543 24 13.6543C21.0534 13.6543 18.6562 11.2464 18.6562 8.28658C18.6562 5.3268 21.0534 2.91886 24 2.91886Z" fill="#00AEF9"/>
<path d="M40.5 16.4794C43.3431 16.4794 45.6562 14.1559 45.6562 11.3C45.6562 8.44407 43.3431 6.12061 40.5 6.12061C37.6568 6.12061 35.3438 8.44407 35.3438 11.3C35.3438 14.1559 37.6568 16.4794 40.5 16.4794ZM40.5 8.94572C41.7923 8.94572 42.8437 10.0018 42.8437 11.3C42.8437 12.5981 41.7923 13.6542 40.5 13.6542C39.2076 13.6542 38.1562 12.5981 38.1562 11.3C38.1562 10.0018 39.2076 8.94572 40.5 8.94572Z" fill="#00AEF9"/>
<path d="M41.6343 19.6812H39.4593C36.8963 19.6812 34.6838 21.2022 33.6756 23.387C31.5999 21.1109 28.6184 19.6812 25.3105 19.6812H22.6895C19.3817 19.6812 16.4001 21.1109 14.3244 23.387C13.3161 21.2022 11.1036 19.6812 8.54061 19.6812H6.36561C2.85562 19.6812 0 22.5323 0 26.0367V36.3211C0 37.8425 1.23694 39.0803 2.75737 39.0803H11.3568C11.5009 40.7659 12.9121 42.0937 14.627 42.0937H33.373C35.0878 42.0937 36.499 40.7659 36.6432 39.0803H45.1444C46.719 39.0803 48 37.7986 48 36.2232V26.0367C47.9999 22.5323 45.1443 19.6812 41.6343 19.6812ZM2.81249 26.0367C2.81249 24.0901 4.40643 22.5063 6.36561 22.5063H8.54061C10.4998 22.5063 12.0937 24.0901 12.0937 26.0367V27.004C11.1481 29.4773 11.3437 30.9595 11.3437 36.2552H2.81249V26.0367ZM33.8437 38.7958C33.8437 39.0566 33.6326 39.2686 33.373 39.2686H14.6269C14.3673 39.2686 14.1562 39.0565 14.1562 38.7958V31.0779C14.1562 26.3515 17.9842 22.5063 22.6894 22.5063H25.3104C30.0157 22.5063 33.8437 26.3515 33.8437 31.0778V38.7958ZM45.1874 36.2232C45.1874 36.2718 45.7117 36.2552 36.6562 36.2552C36.6562 30.9203 36.8503 29.4732 35.9062 27.004V26.0367C35.9062 24.0901 37.5001 22.5063 39.4593 22.5063H41.6343C43.5935 22.5063 45.1874 24.0901 45.1874 26.0367V36.2232Z" fill="#00AEF9"/>
<path d="M7.49999 16.4794C10.3431 16.4794 12.6562 14.1559 12.6562 11.3C12.6562 8.44407 10.3431 6.12061 7.49999 6.12061C4.65684 6.12061 2.34375 8.44407 2.34375 11.3C2.34375 14.1559 4.65684 16.4794 7.49999 16.4794ZM7.49999 8.94572C8.79233 8.94572 9.84374 10.0018 9.84374 11.3C9.84374 12.5981 8.79233 13.6542 7.49999 13.6542C6.20765 13.6542 5.15624 12.5981 5.15624 11.3C5.15624 10.0018 6.20765 8.94572 7.49999 8.94572Z" fill="#00AEF9"/>
</svg>
