<svg width="30" height="30" viewBox="0 0 30 30" fill="none" xmlns="http://www.w3.org/2000/svg">
<g clip-path="url(#clip0)">
<path d="M19.0406 2.06089C19.1157 2.08595 19.1909 2.09848 19.2661 2.09848C19.5856 2.09848 19.8801 1.89172 19.9866 1.57219C20.1119 1.17747 19.8927 0.751432 19.4917 0.632391C19.097 0.507084 18.6772 0.726371 18.5519 1.12735C18.4266 1.5158 18.6458 1.94185 19.0406 2.06089Z" fill="#0066AA"/>
<path d="M16.3654 1.51591C16.3904 1.51591 16.4155 1.52217 16.4406 1.52217C16.8227 1.52217 17.1485 1.23397 17.1861 0.845515C17.23 0.432003 16.9293 0.062348 16.5095 0.0247559C16.096 -0.0191014 15.7263 0.281635 15.6887 0.695147C15.6511 1.10866 15.9519 1.47831 16.3654 1.51591Z" fill="#0066AA"/>
<path d="M10.7266 2.09855C10.8018 2.09855 10.877 2.08602 10.9521 2.06722C11.3469 1.94192 11.5661 1.52214 11.4471 1.12742C11.3218 0.732706 10.902 0.513419 10.5073 0.63246C10.1126 0.757767 9.8933 1.17754 10.0123 1.57226C10.1126 1.89179 10.4071 2.09855 10.7266 2.09855Z" fill="#0066AA"/>
<path d="M21.5533 3.13872C21.666 3.20138 21.7913 3.2327 21.9167 3.2327C22.1798 3.2327 22.4367 3.09487 22.5745 2.84425C22.775 2.48086 22.6434 2.02349 22.28 1.823C21.9167 1.62251 21.4593 1.75408 21.2588 2.11747C21.0583 2.48086 21.1899 2.93823 21.5533 3.13872Z" fill="#0066AA"/>
<path d="M8.07632 3.23881C8.20163 3.23881 8.32693 3.20748 8.43971 3.14483C8.8031 2.94434 8.93467 2.48697 8.73418 2.12358C8.53369 1.76019 8.07632 1.62861 7.71293 1.82911C7.34954 2.0296 7.21797 2.48697 7.41846 2.85036C7.5563 3.10097 7.81318 3.23881 8.07632 3.23881Z" fill="#0066AA"/>
<path d="M23.7962 4.70487C23.9403 4.82391 24.1094 4.88656 24.2849 4.88656C24.4979 4.88656 24.7046 4.79885 24.855 4.62342C25.1244 4.31015 25.0868 3.83399 24.7736 3.56458C24.4603 3.29517 23.9841 3.33276 23.7147 3.64603C23.4453 3.95929 23.4829 4.43546 23.7962 4.70487Z" fill="#0066AA"/>
<path d="M27.8057 9.42288C27.9185 9.42288 28.0312 9.39782 28.1378 9.3477C28.5074 9.166 28.664 8.7149 28.4823 8.33898C28.3007 7.96306 27.8495 7.81269 27.4736 7.99438C27.104 8.17608 26.9473 8.62718 27.129 9.0031C27.2606 9.26625 27.53 9.42288 27.8057 9.42288Z" fill="#0066AA"/>
<path d="M28.0816 11.5593C28.1693 11.8977 28.4763 12.1232 28.8084 12.1232C28.871 12.1232 28.9337 12.117 28.9964 12.0982C29.3973 11.9917 29.6417 11.5844 29.5352 11.1834C29.4287 10.7824 29.0214 10.5381 28.6204 10.6446C28.2195 10.7511 27.9751 11.1584 28.0816 11.5593Z" fill="#0066AA"/>
<path d="M29.2092 13.4765C28.7957 13.4953 28.4761 13.8524 28.4949 14.2659C28.5137 14.6669 28.8458 14.9801 29.2468 14.9801C29.2593 14.9801 29.2718 14.9801 29.2844 14.9801C29.6979 14.9614 30.0174 14.6042 29.9986 14.1907C29.9736 13.7709 29.6227 13.4514 29.2092 13.4765Z" fill="#0066AA"/>
<path d="M13.5521 1.52217C13.5771 1.52217 13.6022 1.52217 13.6273 1.51591C14.0408 1.47205 14.3415 1.10866 14.2976 0.695147C14.2538 0.281635 13.8904 -0.0191014 13.4769 0.0247559C13.0634 0.0686133 12.7626 0.432003 12.8065 0.845515C12.8441 1.23397 13.1699 1.52217 13.5521 1.52217Z" fill="#0066AA"/>
<path d="M27.5116 21.8533C27.1607 21.634 26.6971 21.7405 26.4778 22.0914C26.2585 22.4422 26.365 22.9059 26.7159 23.1251C26.8412 23.2003 26.979 23.2379 27.1106 23.2379C27.3612 23.2379 27.6055 23.1126 27.7497 22.8808C27.9752 22.5362 27.8624 22.0726 27.5116 21.8533Z" fill="#0066AA"/>
<path d="M29.2157 16.3647C28.8084 16.302 28.42 16.584 28.3573 16.9975C28.2947 17.4047 28.5766 17.7932 28.9901 17.8495C29.0277 17.8558 29.0653 17.8558 29.1029 17.8558C29.4663 17.8558 29.7858 17.5864 29.8422 17.2168C29.9111 16.8095 29.6229 16.4273 29.2157 16.3647Z" fill="#0066AA"/>
<path d="M26.8659 5.76372C26.609 5.43792 26.1391 5.37526 25.8133 5.63214C25.4875 5.88902 25.4248 6.35892 25.6817 6.68472C25.8321 6.87268 26.0514 6.97292 26.2769 6.97292C26.4398 6.97292 26.6027 6.9228 26.7343 6.81629C27.0601 6.56568 27.1227 6.08951 26.8659 5.76372Z" fill="#0066AA"/>
<path d="M5.71407 4.88656C5.8895 4.88656 6.06493 4.82391 6.20276 4.70487C6.51603 4.43546 6.55362 3.95929 6.28421 3.64603C6.0148 3.33276 5.53864 3.29517 5.22537 3.56458C4.9121 3.83399 4.87451 4.31015 5.14392 4.62342C5.28802 4.79885 5.50105 4.88656 5.71407 4.88656Z" fill="#0066AA"/>
<path d="M4.31702 6.68472C4.5739 6.35892 4.51125 5.88276 4.18545 5.63214C3.85966 5.37526 3.38349 5.43792 3.13288 5.76372C2.876 6.08951 2.93865 6.56568 3.26445 6.81629C3.40229 6.9228 3.56518 6.97293 3.72808 6.97293C3.94737 6.97919 4.16666 6.87895 4.31702 6.68472Z" fill="#0066AA"/>
<path d="M2.31826 19.6415C2.17416 19.253 1.74185 19.0525 1.3534 19.1966C0.964945 19.3407 0.764454 19.7731 0.908557 20.1615C1.02133 20.4622 1.30954 20.6502 1.61654 20.6502C1.70426 20.6502 1.79197 20.6377 1.87968 20.6001C2.26814 20.4685 2.46236 20.0362 2.31826 19.6415Z" fill="#0066AA"/>
<path d="M0.714549 14.98C0.727079 14.98 0.73961 14.98 0.752141 14.98C1.15312 14.98 1.48519 14.6668 1.50398 14.2658C1.52278 13.8523 1.20325 13.4952 0.789733 13.4764C0.37622 13.4576 0.0190962 13.7771 0.000300204 14.1906C-0.0184958 14.6041 0.301036 14.9612 0.714549 14.98Z" fill="#0066AA"/>
<path d="M3.52147 22.0975C3.30219 21.7466 2.83855 21.6401 2.48769 21.8594C2.13683 22.0787 2.02405 22.5423 2.24961 22.8932C2.39371 23.125 2.63806 23.2503 2.88867 23.2503C3.02651 23.2503 3.16435 23.2127 3.28339 23.1375C3.63425 22.912 3.74076 22.4483 3.52147 22.0975Z" fill="#0066AA"/>
<path d="M1.00901 17.8558C1.42252 17.7932 1.70446 17.411 1.6418 16.9975C1.57915 16.584 1.19697 16.302 0.783453 16.3647C0.376206 16.4273 0.0880003 16.8095 0.150654 17.223C0.207042 17.5989 0.526574 17.8621 0.889964 17.8621C0.933821 17.8621 0.971413 17.8621 1.00901 17.8558Z" fill="#0066AA"/>
<path d="M1.00276 12.1043C1.06541 12.1231 1.12807 12.1293 1.19072 12.1293C1.52278 12.1293 1.82978 11.9038 1.9175 11.5654C2.02401 11.1645 1.77966 10.751 1.37868 10.6507C0.977699 10.5442 0.564186 10.7885 0.463941 11.1895C0.35743 11.5905 0.601778 12.004 1.00276 12.1043Z" fill="#0066AA"/>
<path d="M1.86132 9.3477C1.96783 9.39782 2.08061 9.42288 2.19338 9.42288C2.46906 9.42288 2.73847 9.26625 2.87004 9.0031C3.05174 8.62718 2.90137 8.18234 2.52545 7.99438C2.15579 7.81269 1.70469 7.96306 1.51673 8.33898C1.33503 8.7149 1.49167 9.166 1.86132 9.3477Z" fill="#0066AA"/>
<path d="M28.6454 19.1966C28.2569 19.0525 27.8246 19.253 27.6805 19.6415C27.5364 20.0299 27.7369 20.4622 28.1254 20.6063C28.2131 20.6377 28.3008 20.6502 28.3885 20.6502C28.6955 20.6502 28.9837 20.4622 29.0965 20.1615C29.2343 19.7731 29.0338 19.3407 28.6454 19.1966Z" fill="#0066AA"/>
<path d="M25.5126 24.0586C22.5491 23.3631 20.9327 22.2604 20.0994 21.4647C19.4854 20.882 19.2034 20.3683 19.0781 20.1051C19.2222 19.9736 19.3663 19.8295 19.4979 19.6791C21.9915 16.8722 21.5655 12.0354 21.5216 11.6031C21.3587 8.26365 19.8237 6.6284 18.5581 5.84523C17.1234 4.95555 15.6071 4.86157 15.0182 4.86157C14.9618 4.86157 14.9117 4.86157 14.8741 4.86157C14.8365 4.86157 14.7864 4.86157 14.73 4.86157C14.1473 4.86157 12.6248 4.95555 11.1901 5.84523C9.92449 6.6284 8.38321 8.26365 8.22658 11.6031C8.18272 12.0416 7.75668 16.8722 10.2503 19.6791C10.4508 19.9109 10.6701 20.1177 10.9019 20.3056C10.7077 20.8695 9.6864 22.6301 4.45485 24.0523C4.19797 24.1212 4.00375 24.3154 3.92856 24.5723C3.85338 24.8292 3.9223 25.0986 4.09773 25.2928L4.10399 25.2991C5.4949 26.7652 7.13015 27.9117 8.96589 28.72C10.8706 29.5533 12.9005 29.9793 14.9931 29.9793C17.0858 29.9793 19.1157 29.5595 21.0141 28.72C22.8499 27.9117 24.4851 26.7652 25.876 25.3054C26.064 25.1111 26.1266 24.8292 26.0515 24.5723C25.9825 24.3154 25.7695 24.1212 25.5126 24.0586ZM9.724 11.7346C9.724 11.7221 9.724 11.7033 9.73026 11.6908C9.95581 6.74744 13.6148 6.36525 14.7363 6.36525C14.7864 6.36525 14.824 6.36525 14.849 6.36525C14.8678 6.36525 14.8866 6.36525 14.9054 6.36525C14.9305 6.36525 14.9681 6.36525 15.0182 6.36525C16.1334 6.36525 19.7924 6.74744 20.0242 11.6908C20.0242 11.7033 20.0242 11.7221 20.0305 11.7346C20.0367 11.7785 20.5004 16.2895 18.3764 18.6766C17.5243 19.6352 16.3903 20.1051 14.9117 20.1239C14.8992 20.1239 14.8929 20.1239 14.8804 20.1239C14.8804 20.1239 14.8804 20.1239 14.8741 20.1239C14.8678 20.1239 14.8741 20.1239 14.8678 20.1239C14.8616 20.1239 14.849 20.1239 14.8365 20.1239C13.3579 20.1114 12.2239 19.6352 11.3718 18.6829C9.26036 16.3021 9.71773 11.7785 9.724 11.7346ZM14.9994 28.4756C11.6788 28.4756 8.56491 27.2977 6.10263 25.1362C10.2753 23.7892 11.7101 22.1539 12.1988 21.1076C12.9632 21.4396 13.8215 21.6151 14.7739 21.6339C14.8052 21.6339 14.8365 21.6339 14.8741 21.6339C14.8866 21.6339 14.8992 21.6339 14.9117 21.6339C14.9305 21.6339 14.9556 21.6339 14.9743 21.6339C16.0457 21.6151 16.9981 21.3958 17.8313 20.976C18.3764 21.9973 19.8989 23.9458 23.8586 25.1738C21.4026 27.3103 18.3012 28.4756 14.9994 28.4756Z" fill="#0066AA"/>
</g>
<defs>
<clipPath id="clip0">
<rect width="30" height="30" fill="white" transform="translate(-0.000488281)"/>
</clipPath>
</defs>
</svg>
