<svg width="30" height="30" viewBox="0 0 30 30" fill="none" xmlns="http://www.w3.org/2000/svg">
<g clip-path="url(#clip0)">
<g clip-path="url(#clip1)">
<path d="M22.356 19.2846C21.7842 18.6879 21.1005 18.3771 20.3733 18.3771C19.6523 18.3771 18.9562 18.6879 18.3657 19.2783L16.4389 21.2051C16.2711 21.1119 16.1033 21.0249 15.9355 20.9441C15.718 20.8384 15.5128 20.7327 15.3388 20.6209C13.555 19.4897 11.939 18.0166 10.3913 16.1085C9.62682 15.1389 9.11094 14.3246 8.75045 13.498C9.2539 13.038 9.72005 12.5657 10.1738 12.0995C10.3416 11.9317 10.5094 11.7577 10.6772 11.5898C11.2863 10.9807 11.6095 10.2784 11.6095 9.5636C11.6095 8.84883 11.2863 8.14648 10.6772 7.53737L9.04257 5.90271C8.85611 5.71625 8.66343 5.52357 8.48318 5.33711C8.12269 4.97039 7.74976 4.58504 7.35819 4.22454C6.78637 3.65894 6.10888 3.3606 5.38789 3.3606C4.67312 3.3606 3.9832 3.65894 3.39274 4.22454C3.38652 4.23076 3.38652 4.23076 3.38031 4.23697L1.32921 6.28807C0.570928 7.04635 0.142062 7.96624 0.0488306 9.03529C-0.0568319 10.3592 0.18557 11.7639 0.81333 13.4607C1.77672 16.0712 3.23114 18.4952 5.38789 21.0932C8.01081 24.2258 11.162 26.6934 14.7608 28.4337C16.1344 29.0863 17.9679 29.8508 20.019 29.9875C20.1433 29.9938 20.2739 30 20.392 30C21.7594 30 22.9092 29.5089 23.8042 28.5331C23.8105 28.5269 23.8229 28.5145 23.8291 28.5083C24.1461 28.1291 24.5004 27.7811 24.8795 27.4206C25.1343 27.1719 25.4016 26.9171 25.6564 26.6436C26.856 25.3943 26.8498 23.8032 25.644 22.5974L22.356 19.2846ZM24.5936 25.5994C24.5874 25.5994 24.5874 25.5994 24.5936 25.5994C24.3574 25.8481 24.115 26.0842 23.8602 26.3329C23.4748 26.7058 23.0708 27.0911 22.7103 27.5262C22.095 28.1913 21.3616 28.502 20.4106 28.502C20.3174 28.502 20.2241 28.502 20.1309 28.4958C18.3409 28.3777 16.6751 27.6816 15.4258 27.0849C12.0198 25.4378 9.03636 23.0946 6.55018 20.1361C4.49908 17.6685 3.12547 15.3813 2.21802 12.9324C1.65863 11.4282 1.4473 10.2597 1.54054 9.15339C1.60269 8.43861 1.88239 7.84193 2.39205 7.33226L4.43693 5.28738C4.74149 4.99526 5.07091 4.84609 5.39411 4.84609C5.7111 4.84609 6.02808 4.99526 6.31399 5.28117C6.32021 5.28738 6.32642 5.2936 6.33264 5.29981C6.69935 5.64166 7.04741 5.99594 7.41413 6.37508C7.60059 6.56155 7.79327 6.76044 7.98595 6.95312L9.62061 8.58778C10.2732 9.2404 10.2732 9.88059 9.62061 10.5332C9.44658 10.7072 9.27876 10.8813 9.10473 11.0491C8.59506 11.565 8.11647 12.0498 7.59437 12.5159C7.58194 12.5222 7.57573 12.5346 7.5633 12.547C7.07849 13.0318 7.15308 13.4918 7.27117 13.8398C7.27739 13.8585 7.2836 13.8709 7.28982 13.8895C7.71247 14.9151 8.30915 15.8847 9.2166 17.0346L9.22282 17.0408C10.8761 19.0732 12.6102 20.6582 14.5308 21.8764C14.7732 22.0318 15.0218 22.1561 15.2642 22.2742C15.4818 22.3798 15.6869 22.4855 15.8609 22.5974C15.8796 22.6098 15.9044 22.6222 15.9293 22.6347C16.122 22.7279 16.3084 22.7776 16.4949 22.7776C16.9673 22.7776 17.2656 22.4793 17.365 22.3798L19.4161 20.3287C19.7207 20.0242 20.0501 19.8626 20.3671 19.8626C20.7587 19.8626 21.0819 20.1112 21.2808 20.3163C21.287 20.3225 21.287 20.3225 21.2932 20.3287L24.5998 23.6354C25.3892 24.4309 25.0287 25.1395 24.5936 25.5994Z" fill="#0066AA"/>
<path d="M17.135 6.64869C17.3339 6.64869 17.5266 6.56789 17.6633 6.43115C17.8001 6.29441 17.8809 6.10173 17.8809 5.90284C17.8809 5.70394 17.8001 5.51126 17.6633 5.37452C17.5266 5.23778 17.3339 5.15698 17.135 5.15698C16.9361 5.15698 16.7434 5.23778 16.6067 5.37452C16.47 5.51126 16.3892 5.70394 16.3892 5.90284C16.3892 6.10173 16.47 6.29441 16.6067 6.43115C16.7434 6.56789 16.9361 6.64869 17.135 6.64869Z" fill="#0066AA"/>
<path d="M19.6026 7.47523C19.8698 7.47523 20.1309 7.32606 20.2676 7.07123C20.4541 6.70452 20.3173 6.25701 19.9506 6.06433C19.5839 5.87165 19.1364 6.01461 18.9437 6.38132C18.751 6.74803 18.894 7.19554 19.2607 7.38822C19.3726 7.45037 19.4845 7.47523 19.6026 7.47523Z" fill="#0066AA"/>
<path d="M22.2318 8.79914C22.5239 8.50702 22.5239 8.03465 22.2318 7.74253C21.9397 7.45041 21.4673 7.45041 21.1752 7.74253C20.883 8.03465 20.883 8.50702 21.1752 8.79914C21.3181 8.9421 21.5108 9.01668 21.7035 9.01668C21.8961 9.01668 22.0888 8.9421 22.2318 8.79914Z" fill="#0066AA"/>
<path d="M22.9028 9.71284C22.5361 9.90552 22.3931 10.353 22.5858 10.7197C22.7163 10.9746 22.9774 11.1237 23.2509 11.1237C23.369 11.1237 23.4871 11.0989 23.5927 11.0429C23.9594 10.8503 24.1024 10.4028 23.9097 10.036C23.7232 9.66312 23.2695 9.52016 22.9028 9.71284Z" fill="#0066AA"/>
<path d="M23.332 12.8455C23.332 13.0444 23.4128 13.237 23.5496 13.3738C23.6863 13.5105 23.879 13.5913 24.0779 13.5913C24.2768 13.5913 24.4695 13.5105 24.6062 13.3738C24.7429 13.237 24.8237 13.0444 24.8237 12.8455C24.8237 12.6466 24.7429 12.4539 24.6062 12.3171C24.4695 12.1804 24.2768 12.0996 24.0779 12.0996C23.879 12.0996 23.6863 12.1804 23.5496 12.3171C23.4128 12.4539 23.332 12.6466 23.332 12.8455Z" fill="#0066AA"/>
<path d="M16.3396 11.5276C16.8679 11.6146 17.3465 11.8695 17.7319 12.2486C18.1173 12.634 18.3659 13.1125 18.4529 13.6409C18.515 14.0076 18.832 14.2624 19.1863 14.2624C19.2298 14.2624 19.2671 14.2562 19.3106 14.25C19.7146 14.1816 19.9881 13.7962 19.9197 13.3922C19.7768 12.5594 19.3852 11.8011 18.7823 11.1982C18.1794 10.5953 17.4211 10.2037 16.5883 10.0608C16.1843 9.9924 15.7989 10.2659 15.7305 10.6699C15.6559 11.0739 15.9294 11.4592 16.3396 11.5276Z" fill="#0066AA"/>
<path d="M29.9638 12.4786C29.4355 9.36471 27.9625 6.52426 25.7062 4.26805C23.45 2.01185 20.6096 0.53879 17.4957 0.0104773C17.0916 -0.0578926 16.7063 0.215587 16.6379 0.61959C16.5695 1.02359 16.843 1.40895 17.247 1.47732C20.0564 1.95591 22.6172 3.2798 24.6558 5.31846C26.6883 7.35091 28.0184 9.91167 28.497 12.7273C28.5591 13.094 28.8761 13.3488 29.2304 13.3488C29.2739 13.3488 29.3112 13.3426 29.3547 13.3364C29.7587 13.2742 30.0322 12.8889 29.9638 12.4786Z" fill="#0066AA"/>
</g>
</g>
<defs>
<clipPath id="clip0">
<rect width="30" height="30" fill="white" transform="translate(-0.000488281)"/>
</clipPath>
<clipPath id="clip1">
<rect width="30" height="30" fill="white" transform="translate(-0.000488281)"/>
</clipPath>
</defs>
</svg>
