<svg width="20" height="20" viewBox="0 0 20 20" fill="none" xmlns="http://www.w3.org/2000/svg">
<g clip-path="url(#clip0)">
<path d="M16.7936 3.0036C16.6368 2.98242 16.4801 2.96547 16.3191 2.94853C15.8362 2.89345 15.3786 2.83838 14.9296 2.74094C13.1969 2.35967 11.5277 1.58441 9.68491 0.300784C9.43496 0.127092 9.25704 0 8.99438 0C8.73172 0 8.54532 0.131328 8.30385 0.292311C5.84674 1.9911 3.61839 2.85109 1.30109 2.99936C1.03419 3.01631 0.758829 3.06291 0.555482 3.28744C0.356371 3.50773 0.343662 3.78733 0.343662 4.03304C0.343662 4.61343 0.343662 5.19381 0.343662 5.7742C0.339426 7.38403 0.339426 9.04469 0.356371 10.6842C0.360608 11.2561 0.436863 11.8492 0.572427 12.4508C0.890157 13.8488 1.62729 15.1112 2.81348 16.3143C4.33011 17.8479 6.23649 19.0341 8.64699 19.9407C8.7529 19.9788 8.86729 20 8.99014 20C9.14265 20 9.2994 19.9703 9.43496 19.911C9.57477 19.8475 9.7188 19.7882 9.8586 19.7289C10.4475 19.4747 11.0617 19.212 11.6464 18.9028C13.5866 17.8776 15.0524 16.6702 16.1242 15.2129C17.0647 13.9335 17.5519 12.6541 17.6112 11.3027C17.6112 11.2985 17.6112 11.29 17.6112 11.2857L17.6578 3.96102C17.6493 3.57128 17.5011 3.09257 16.7936 3.0036ZM16.5902 11.2646C16.5394 12.4042 16.1158 13.4971 15.3024 14.6071C14.3238 15.9373 12.9681 17.0472 11.1676 18.0004C10.6169 18.2927 10.0281 18.5469 9.45191 18.7926C9.30787 18.8562 9.16384 18.9155 9.02403 18.979C9.0198 18.979 9.00285 18.9833 8.98591 18.9833C6.72791 18.1318 4.94439 17.0218 3.53367 15.5984C2.4788 14.5351 1.83487 13.4294 1.55951 12.222C1.43665 11.6924 1.37311 11.1714 1.36887 10.6757C1.35192 9.04469 1.35616 7.38403 1.35616 5.77844C1.35616 5.19805 1.35616 4.61767 1.35616 4.03728C1.35616 4.02881 1.35616 4.02457 1.35616 4.0161H1.3604C3.87258 3.85935 6.26191 2.94005 8.88423 1.13535C8.91389 1.11417 8.95625 1.08452 8.99438 1.0591C9.02827 1.08452 9.0664 1.10993 9.10453 1.13535C11.0321 2.47829 12.8664 3.3298 14.7093 3.73226C15.2049 3.84241 15.7091 3.90172 16.2005 3.95679C16.3445 3.97373 16.4886 3.99068 16.6284 4.00763L16.5902 11.2646Z" fill="black" fill-opacity="0.3"/>
<path d="M8.9942 3.77051C8.7146 3.77051 8.48584 3.99927 8.48584 4.27887C8.48584 4.55848 8.7146 4.78724 8.9942 4.78724C9.2738 4.78724 9.50256 4.55848 9.50256 4.27887C9.50256 3.99927 9.2738 3.77051 8.9942 3.77051Z" fill="black" fill-opacity="0.3"/>
<path d="M8.9942 9.43018C8.7146 9.43018 8.48584 9.65894 8.48584 9.93854C8.48584 10.2181 8.7146 10.4469 8.9942 10.4469C9.2738 10.4469 9.50256 10.2181 9.50256 9.93854C9.50256 9.65894 9.2738 9.43018 8.9942 9.43018Z" fill="black" fill-opacity="0.3"/>
<path d="M8.9942 7.54492C8.7146 7.54492 8.48584 7.77369 8.48584 8.05329C8.48584 8.33289 8.7146 8.56166 8.9942 8.56166C9.2738 8.56166 9.50256 8.33289 9.50256 8.05329C9.50256 7.77369 9.2738 7.54492 8.9942 7.54492Z" fill="black" fill-opacity="0.3"/>
<path d="M8.9942 11.3154C8.7146 11.3154 8.48584 11.5442 8.48584 11.8238C8.48584 12.1034 8.7146 12.3322 8.9942 12.3322C9.2738 12.3322 9.50256 12.1034 9.50256 11.8238C9.50256 11.5442 9.2738 11.3154 8.9942 11.3154Z" fill="black" fill-opacity="0.3"/>
<path d="M8.9942 13.2048C8.7146 13.2048 8.48584 13.4336 8.48584 13.7132C8.48584 13.9928 8.7146 14.2216 8.9942 14.2216C9.2738 14.2216 9.50256 13.9928 9.50256 13.7132C9.50256 13.4336 9.2738 13.2048 8.9942 13.2048Z" fill="black" fill-opacity="0.3"/>
<path d="M8.9942 5.65991C8.7146 5.65991 8.48584 5.88868 8.48584 6.16828C8.48584 6.44788 8.7146 6.67665 8.9942 6.67665C9.2738 6.67665 9.50256 6.44788 9.50256 6.16828C9.50256 5.88444 9.2738 5.65991 8.9942 5.65991Z" fill="black" fill-opacity="0.3"/>
<path d="M8.9942 1.88525C8.7146 1.88525 8.48584 2.11402 8.48584 2.39362C8.48584 2.67322 8.7146 2.90199 8.9942 2.90199C9.2738 2.90199 9.50256 2.67322 9.50256 2.39362C9.50256 2.11402 9.2738 1.88525 8.9942 1.88525Z" fill="black" fill-opacity="0.3"/>
<path d="M8.9942 15.0901C8.7146 15.0901 8.48584 15.3189 8.48584 15.5985C8.48584 15.8781 8.7146 16.1068 8.9942 16.1068C9.2738 16.1068 9.50256 15.8781 9.50256 15.5985C9.50256 15.3189 9.2738 15.0901 8.9942 15.0901Z" fill="black" fill-opacity="0.3"/>
<path d="M8.9942 16.9751C8.7146 16.9751 8.48584 17.2039 8.48584 17.4835C8.48584 17.7631 8.7146 17.9918 8.9942 17.9918C9.2738 17.9918 9.50256 17.7631 9.50256 17.4835C9.50256 17.2039 9.2738 16.9751 8.9942 16.9751Z" fill="black" fill-opacity="0.3"/>
</g>
<defs>
<clipPath id="clip0">
<rect width="20" height="20" fill="white" transform="translate(-0.000488281)"/>
</clipPath>
</defs>
</svg>
